PathFileType	4	(X/Y/Z)	\\Move.snu.ac.kr\motion\Animal\091204_091205_Bird\091205_bird\Project 2\Capture day 2\Session 1\pigeon_008.trc
DataRate	CameraRate	NumFrames	NumMarkers	Units	OrigDataRate	OrigDataStartFrame	OrigNumFrames
240.0	240.0	19	14	mm	240.0	122	3164
Frame#	Time	14MarkersBird:Head			14MarkersBird:C_back			14MarkersBird:Spine			14MarkersBird:L-shoulder			14MarkersBird:L-elbow			14MarkersBird:L-wrist			14MarkersBird:L-hand			14MarkersBird:R-shoulder			14MarkersBird:R-elbow			14MarkersBird:R-Wrist			14MarkersBird:R-hand			14MarkersBird:C_Tail			14MarkersBird:L-Tale			14MarkersBird:R-Tale			
		X1	Y1	Z1	X2	Y2	Z2	X3	Y3	Z3	X4	Y4	Z4	X5	Y5	Z5	X6	Y6	Z6	X7	Y7	Z7	X8	Y8	Z8	X9	Y9	Z9	X10	Y10	Z10	X11	Y11	Z11	X12	Y12	Z12	X13	Y13	Z13	X14	Y14	Z14	

2166	9.021	-231.00044	455.44278	1924.95264	-287.64127	446.55499	1911.17773	-339.81546	429.92294	1907.62122	-253.22560	442.18979	1894.47949	-268.43558	446.96313	1870.11926	-233.89064	439.68494	1846.74719	-219.77484	443.30383	1822.08655	-259.36783	442.23947	1943.64648	-278.50208	452.04752	1961.26563	-255.76915	444.63187	1996.26782	-251.81088	448.63489	2032.81970	-429.87012	354.33380	1875.60925	-342.42636	377.20767	1815.87842	-383.48676	381.53461	2002.59778	
2167	9.025	-224.49884	454.64285	1926.33374	-281.63596	446.69409	1912.47510	-333.90454	430.20419	1908.89209	-246.64427	441.18591	1896.09705	-258.68732	439.74136	1870.80212	-221.50404	426.84888	1855.18079	-203.96997	423.14474	1834.34241	-252.60005	441.53259	1944.82043	-268.40576	445.04483	1965.10950	-241.25449	430.24814	1992.66870	-231.05461	424.14322	2027.44104	-422.50876	351.05069	1877.49890	-337.81598	375.76978	1817.78589	-378.50360	379.60025	2002.29968	
2168	9.029	-217.78973	453.89270	1927.82324	-275.57932	447.11377	1913.90063	-327.74939	430.40842	1910.23755	-240.03087	440.80029	1897.70007	-250.24559	433.16446	1873.09424	-211.38568	417.53809	1866.16699	-191.83023	406.84216	1851.82288	-245.97012	441.45715	1946.03943	-258.84595	438.60159	1966.79053	-228.42511	418.79089	1985.36401	-212.56071	403.63547	2014.90198	-415.89255	350.29535	1879.43884	-333.82635	373.94928	1820.03235	-374.09479	376.87738	2001.26794	
2169	9.033	-210.81621	453.09369	1929.42529	-269.30627	447.63483	1915.51978	-321.29163	430.33582	1911.70593	-233.37476	440.92218	1899.22559	-243.49387	427.96115	1876.09766	-203.67210	412.91772	1877.50549	-183.58736	397.06006	1871.38611	-239.39899	441.57388	1947.45557	-250.70107	433.13132	1967.08679	-217.90672	411.89404	1976.62610	-197.63959	389.58719	1998.24609	-409.20377	350.04190	1881.51172	-329.91586	372.10507	1822.39807	-369.58215	373.39856	1999.75330	
2170	9.038	-203.53328	452.23523	1931.13684	-262.64066	448.05142	1917.33948	-314.46701	429.92688	1913.32361	-226.63023	441.27155	1900.66516	-238.35460	424.64206	1878.87610	-197.90466	413.13907	1886.70972	-178.31628	394.93457	1888.74573	-232.77548	441.45697	1949.02466	-244.46367	429.20724	1967.08350	-209.69531	410.18414	1969.18311	-186.50696	383.15598	1981.68665	-401.71442	348.73856	1883.98413	-325.47836	370.43811	1824.69092	-364.28162	369.30194	1998.14355	
2171	9.042	-195.91434	451.34988	1932.95447	-255.43266	448.15668	1919.33252	-307.20151	429.24014	1915.07312	-219.74716	441.54675	1902.11328	-234.55092	423.58743	1880.81824	-193.41757	417.29834	1891.87451	-174.48351	399.16647	1900.14014	-226.00049	440.88269	1950.67542	-240.14265	427.28296	1967.69421	-203.57080	412.76694	1965.21619	-178.59366	383.49951	1969.41711	-393.21262	346.00467	1887.05530	-320.06064	368.93481	1826.84888	-357.75650	364.80316	1996.88892	
2172	9.046	-187.96437	450.43338	1934.86511	-247.65967	447.81219	1921.47510	-299.50882	428.36496	1916.92004	-212.77182	441.44525	1903.76514	-231.71025	425.05237	1881.95349	-189.68587	423.93704	1892.50024	-170.93924	406.81744	1903.95093	-219.02095	439.83786	1952.45813	-237.29295	427.48120	1969.16187	-199.16847	417.87500	1965.59595	-173.20670	388.13821	1964.17822	-384.04987	342.45804	1890.60620	-313.46854	367.47269	1828.83313	-349.91574	360.11426	1996.27515	
2173	9.050	-179.77455	449.47116	1936.84045	-239.44423	446.94852	1923.77075	-291.51260	427.32523	1918.80188	-205.70265	440.87897	1905.67542	-229.39055	428.94510	1883.01636	-186.52501	431.81100	1889.75085	-167.41714	415.12299	1900.88220	-211.79988	438.46637	1954.42725	-235.21758	429.69589	1970.93420	-195.85963	424.14764	1969.76135	-170.08936	394.26340	1966.54175	-374.79022	339.00610	1894.14600	-305.87506	366.10928	1830.56592	-341.03174	355.53113	1996.36804	
2174	9.054	-171.48686	448.43698	1938.84424	-230.97914	445.52914	1926.21558	-283.36813	426.14236	1920.62415	-198.42496	440.01819	1907.68237	-227.03313	434.47214	1885.15942	-183.89899	440.49994	1885.85559	-164.65677	422.85663	1892.98987	-204.36143	437.09634	1956.45447	-233.00667	433.68884	1971.87952	-193.20168	431.07764	1976.20386	-169.60500	400.22781	1975.09338	-365.80609	336.08578	1897.16272	-297.69794	365.16739	1831.91858	-331.54196	351.43915	1997.07288	
2175	9.058	-163.21649	447.29364	1940.83020	-222.45132	443.59787	1928.76953	-275.16260	424.79904	1922.35742	-190.74257	439.18280	1909.63452	-224.05913	440.24539	1889.37183	-181.99901	449.64917	1883.27283	-164.18272	430.40863	1882.97693	-196.78641	436.08383	1958.22815	-229.67607	438.79620	1970.83044	-191.27071	438.62708	1982.99170	-172.37738	406.22601	1987.16589	-357.01505	333.46603	1899.34351	-289.31204	365.05621	1832.77466	-321.88379	348.22382	1998.29773	
2176	9.063	-155.07253	446.06387	1942.80225	-214.03210	441.32205	1931.37146	-266.94171	423.23334	1924.02100	-182.67024	438.48801	1911.63257	-219.94922	444.94409	1895.88171	-180.69435	458.61444	1883.84473	-167.32372	438.97076	1874.06848	-189.19876	435.51303	1959.42688	-224.61633	443.89603	1967.30200	-190.20099	446.73544	1988.01135	-178.42076	413.96060	1999.51038	-348.08383	330.74210	1900.47339	-280.78867	365.98499	1833.09851	-312.39813	346.11539	2000.08362	
2177	9.067	-147.14662	444.81070	1944.78040	-205.86099	438.92453	1933.95471	-258.76627	421.38104	1925.62488	-174.50948	437.73108	1913.88940	-214.46997	448.01273	1904.01941	-179.31702	466.70789	1888.18726	-173.67786	449.60519	1869.57166	-181.69150	435.15634	1960.06445	-217.79678	447.78513	1961.77539	-189.45651	455.07318	1989.54736	-186.58333	425.37933	2008.97595	-338.80246	327.85107	1900.39832	-271.93924	367.85660	1832.96228	-303.21439	345.06271	2002.54456	
2178	9.071	-139.44498	443.55191	1946.75342	-198.02759	436.58319	1936.47839	-250.71616	419.16730	1927.14429	-166.55096	436.67755	1916.44897	-207.76656	449.77353	1912.55383	-177.12744	473.52530	1895.57263	-180.82799	462.46567	1871.60217	-174.31966	434.69153	1960.51917	-209.52271	449.85028	1955.57031	-187.83055	463.13937	1987.14795	-194.85260	441.07458	2013.00696	-329.26273	325.03348	1899.20422	-262.60422	370.34464	1832.52771	-294.20047	344.69861	2005.68311	
2179	9.075	-131.92891	442.22601	1948.69214	-190.53453	434.36456	1938.91663	-242.87961	416.52432	1928.50659	-158.91347	435.23575	1919.13159	-200.00491	450.84366	1920.28369	-173.69743	478.95166	1904.52332	-185.88075	476.45779	1880.32617	-167.08159	433.81915	1961.20056	-200.01283	450.30652	1950.34229	-184.36298	470.36075	1981.85901	-201.02609	459.55881	2010.11926	-319.93472	322.50140	1897.38245	-252.87204	373.02710	1832.07776	-285.22568	344.60101	2009.35754	
2180	9.079	-124.55284	440.73257	1950.59021	-183.31873	432.26483	1941.25244	-235.30887	413.47113	1929.67090	-151.61127	433.39798	1921.70886	-191.13359	451.58316	1926.38513	-168.75465	483.01721	1913.35791	-186.90933	489.43372	1894.08899	-159.91853	432.39600	1962.32080	-189.60634	449.80148	1947.27100	-178.73239	476.29794	1975.68652	-203.18604	477.98849	2000.67200	-311.37106	320.30240	1895.55957	-243.07924	375.49658	1831.89563	-276.29242	344.32867	2013.20215	
2181	9.083	-117.27082	438.99832	1952.46533	-176.28357	430.24908	1943.46960	-227.96574	410.13986	1930.68091	-144.48593	431.35388	1923.98291	-181.10075	452.28772	1930.44727	-162.25296	485.67987	1920.36963	-183.24594	499.15558	1909.55627	-152.73297	430.44208	1963.92078	-179.01695	448.83728	1946.65979	-171.13458	480.55515	1971.01526	-200.10477	493.61160	1987.74268	-303.82196	318.50446	1894.07727	-233.59155	377.40570	1832.09497	-267.58255	343.50790	2016.70142	
2182	9.087	-110.07884	437.02423	1954.37598	-169.32426	428.27954	1945.55090	-220.73404	406.75458	1931.65076	-137.36952	429.33292	1925.90869	-170.34859	453.07401	1932.48914	-154.53366	486.94000	1923.95190	-175.49124	504.66650	1922.12488	-145.44948	428.03107	1966.04858	-168.97150	447.59409	1948.27795	-162.32147	482.67236	1970.07104	-191.67598	504.80899	1976.72424	-297.13782	317.12662	1893.10632	-224.69716	378.60797	1832.62842	-259.42438	342.01459	2019.41309	
2183	9.092	-102.98277	434.86877	1956.35974	-162.33601	426.31851	1947.47986	-213.46010	403.56808	1932.72522	-130.11984	427.48129	1927.61096	-159.85133	453.67731	1933.05164	-146.21338	486.67758	1923.17126	-165.19305	506.80328	1927.61084	-138.00673	425.22650	1968.72449	-159.83794	446.14252	1951.91980	-153.42650	482.25092	1974.11450	-179.52888	511.30023	1973.39722	-290.84238	316.04578	1892.74915	-216.57178	379.20331	1833.44043	-252.10081	339.91837	2021.08557	
2184	9.096	-95.93358	432.61261	1958.37244	-155.21397	424.32822	1949.23901	-206.01405	400.82504	1934.01868	-122.63538	425.82144	1929.29663	-150.40742	453.56891	1932.72595	-137.59274	484.53735	1918.26917	-153.80969	506.80609	1924.13501	-130.38954	422.14182	1971.80981	-151.69247	444.42279	1957.34692	-145.26143	478.99710	1982.75342	-166.46295	513.08710	1980.49951	-284.36728	315.06870	1892.94055	-209.09418	379.34683	1834.49329	-245.54919	337.25897	2021.66980	
